<?xml version="1.0" standalone="no"?>
<!DOCTYPE svg PUBLIC "-//W3C//DTD SVG 20010904//EN"
 "http://www.w3.org/TR/2001/REC-SVG-20010904/DTD/svg10.dtd">
<svg version="1.0" xmlns="http://www.w3.org/2000/svg"
 width="283.000000pt" height="171.000000pt" viewBox="0 0 283.000000 171.000000"
 preserveAspectRatio="xMidYMid meet">
<metadata>
Created by potrace 1.15, written by Peter Selinger 2001-2017
</metadata>
<g transform="translate(0.000000,171.000000) scale(0.100000,-0.100000)"
fill="#009688" stroke="none">
<path d="M754 1607 c-2 -7 -3 -29 -2 -48 3 -39 6 -38 -137 -25 l-70 7 -63 -81
c-69 -88 -111 -169 -119 -230 -5 -35 -9 -39 -37 -42 -26 -2 -31 -7 -31 -28 0
-18 7 -27 30 -34 17 -6 31 -11 32 -11 2 -1 16 -183 33 -406 39 -508 54 -654
70 -674 20 -24 50 -19 50 9 0 13 16 262 35 552 19 290 35 528 35 528 0 8 165
-6 176 -15 11 -9 17 -9 29 1 13 10 19 10 35 -5 19 -17 20 -32 20 -264 0 -260
-6 -302 -45 -349 -29 -35 -18 -52 32 -52 38 0 97 -22 108 -40 4 -6 8 -22 10
-36 5 -49 19 -46 111 23 49 36 103 77 120 90 l32 24 26 -45 c14 -25 39 -53 55
-62 16 -10 27 -23 25 -29 -3 -6 2 -17 10 -24 12 -10 22 -4 55 32 23 24 59 57
82 72 28 20 39 34 37 49 -2 17 -9 20 -34 18 -21 -2 -36 4 -50 19 -18 20 -19
38 -19 293 0 242 2 275 18 304 10 18 25 36 33 39 25 9 15 21 -33 43 -27 11
-62 37 -79 57 l-32 37 -47 -42 c-26 -23 -63 -47 -81 -54 -19 -7 -34 -15 -34
-18 0 -4 11 -17 25 -30 14 -13 29 -40 35 -59 5 -20 10 -142 10 -272 l0 -236
-58 -45 -57 -46 -43 39 -43 38 3 270 3 270 28 29 28 29 -55 28 c-30 15 -67 41
-82 56 -15 16 -33 29 -38 29 -6 0 -22 -16 -36 -35 -23 -31 -109 -105 -123
-105 -3 0 -7 10 -9 23 -3 20 -9 22 -83 27 -65 4 -88 10 -122 32 -23 16 -50 39
-58 52 -19 29 -11 72 15 86 26 14 103 12 178 -4 34 -7 62 -10 62 -6 0 4 23 48
50 99 51 94 59 128 38 149 -16 16 -47 15 -54 -1z"/>
<path d="M2382 1598 c-30 -33 -94 -172 -96 -210 -1 -26 3 -34 20 -36 15 -2 36
15 76 60 97 110 117 158 80 191 -26 23 -55 21 -80 -5z"/>
<path d="M1849 1251 l-62 -70 -20 40 c-19 40 -62 70 -117 82 -22 5 -33 -5 -85
-68 -70 -86 -69 -85 -52 -109 13 -18 15 -18 38 -3 35 25 58 21 65 -10 3 -16 8
-35 11 -43 2 -8 4 -131 4 -273 -1 -302 -15 -421 -68 -576 -33 -100 -34 -105
-17 -118 10 -7 23 -12 29 -10 19 5 62 108 86 204 13 53 29 98 36 100 21 8 113
-38 113 -57 0 -10 7 -23 15 -30 13 -11 18 -9 32 11 8 13 63 71 120 127 l106
104 -21 21 -21 20 -46 -39 c-82 -70 -84 -70 -139 -42 l-48 24 0 283 c0 347 0
345 102 266 l58 -45 76 84 c42 46 76 88 76 94 0 5 -6 15 -14 21 -10 8 -19 6
-38 -8 l-25 -20 -49 35 c-27 19 -52 44 -56 55 -4 10 -12 19 -17 19 -5 0 -38
-31 -72 -69z"/>
<path d="M2232 1227 c-45 -45 -82 -87 -82 -93 0 -7 7 -17 15 -24 12 -10 19
-10 37 2 20 14 25 14 45 1 l23 -15 0 -298 0 -298 -26 -31 -26 -31 36 -15 c19
-8 39 -15 44 -15 5 0 28 -16 51 -37 l43 -36 76 76 c73 73 76 78 59 94 -14 14
-21 15 -36 6 -15 -10 -22 -9 -35 6 -14 15 -16 56 -16 313 0 279 1 297 20 321
23 29 17 37 -47 56 -45 12 -58 25 -58 55 0 10 -9 25 -20 32 -19 13 -27 7 -103
-69z"/>
</g>
</svg>
